<?xml version="1.0" encoding="utf-8"?>
<!-- Generator: Adobe Illustrator 19.2.0, SVG Export Plug-In . SVG Version: 6.00 Build 0)  -->
<svg version="1.1" id="Layer_1" xmlns="http://www.w3.org/2000/svg" xmlns:xlink="http://www.w3.org/1999/xlink" x="0px" y="0px"
	 viewBox="0 0 596.7 596.7" style="enable-background:new 0 0 596.7 596.7;" xml:space="preserve">
<style type="text/css">
	.st0{opacity:0.8;fill:#282828;stroke:#000000;stroke-miterlimit:10;enable-background:new    ;}
	.st1{fill:#F0ECEC;}
</style>
<rect class="st0" width="596.6" height="598.7"/>
<g>
	<path class="st1" d="M0,495.4c18.3-39.2,50.2-63,87.5-80.2c66.2-30.6,150.6-45.7,222.9-44.1c80.3,1.8,157.5,21,227.8,63
		c25.7,15.3,45.6,36.9,58.4,64.8c-0.1,29.4,0,98.8,0,98.8l-595.9-2C0.8,595.7-0.1,526.3,0,495.4z"/>
	<path class="st1" d="M448.1,148.5c3.2,67.2-36.6,132.4-106.4,151.9c-11.5,3.2-23.2,5-34.8,5.5c-50.2,2.1-98.7-20.5-126.2-61.3
		c-18.5-27.4-27.9-58-28.2-88.5V152c0.3-30.5,9.7-61.1,28.2-88.5c27.6-40.8,76-63.4,126.2-61.3c11.6,0.5,23.3,2.3,34.8,5.5
		C401.9,24.4,439.8,77.6,447,135L448.1,148.5z"/>
</g>
</svg>
